<?xml version="1.0" encoding="UTF-8"?>
<!-- Created with Inkscape (http://www.inkscape.org/) -->
<svg version="1.1" viewBox="0 0 563.74 236.29" xmlns="http://www.w3.org/2000/svg">
     <g transform="translate(487.8 1525)" fill="#0ab9ff" fill-opacity=".93493" stroke-opacity=".93493">
          <path transform="matrix(1.1288 0 0 1.2724 -626.96 161.9)" d="m429.58-1283.1c-40.424-0.1255-99.422-0.1261-134.07 0.125-34.652 0.2511-44.966 0.7547-52.652 1.6367-7.6866 0.8821-12.748 2.1455-17.154 3.4043s-8.2168 2.5307-12.773 4.9356-9.8716 5.9521-18.803 13.877c-8.9312 7.9249-21.488 20.229-34.172 33.164s-25.488 26.481-31.688 35.338c-3.0998 4.4282-4.549 7.6663-4.9004 9.9082-0.17567 1.1209-0.0819 2.0137 0.30859 2.6738 0.39053 0.6602 1.1023 1.0098 1.8633 1.0098 1.522 0 3.2949-1.09 5.5195-2.8379 2.2246-1.7479 4.8667-4.2033 7.8828-7.0938 6.0322-5.7808 13.565-13.314 20.723-20.598s13.93-14.302 20.678-19.926c6.7481-5.6234 13.493-9.8694 20.117-13.244 6.6245-3.3748 13.132-5.8799 18.15-7.7618 2.509-0.9408 4.5387-1.6986 12.092-2.3554 7.5531-0.6568 20.575-1.1896 44.861-1.6289 48.573-0.8786 142.22-1.3809 189.17-1.3809 23.474 0 35.258 0.1274 41.277-0.332 3.0099-0.2297 4.6032-0.5729 5.5625-1.3067 0.47965-0.3668 0.76583-0.8482 0.91016-1.3554s0.17161-1.04 0.20312-1.6231c0.25215-4.6646 0.50383-14.455 0.75391-19.207 0.0625-1.188 0.1354-2.0763 8e-3 -2.8281-0.12758-0.7519-0.56628-1.3883-1.3164-1.7071-1.5002-0.6376-4.0903-0.5097-9.4844-0.5097-10.788 0-32.637-0.2514-73.061-0.377zm-2e-3 1c40.421 0.1256 62.259 0.377 73.062 0.377 5.4018 0 8.0833 0 9.0938 0.4316 0.50522 0.2147 0.63056 0.4104 0.72266 0.9531 0.0921 0.5428 0.0396 1.4103-0.0234 2.6075-0.25202 4.7887-0.50196 14.582-0.75195 19.207-0.0312 0.5781-0.0671 1.046-0.16797 1.4004-0.10086 0.3544-0.24189 0.5967-0.55469 0.8359-0.6256 0.4785-2.0782 0.8801-5.0312 1.1055-5.9061 0.4507-17.724 0.3281-41.201 0.3281-46.954 0-140.6 0.502-189.19 1.3809-24.295 0.4394-37.323 0.9715-44.928 1.6328-7.6052 0.6613-9.843 1.4739-12.355 2.416-5.0248 1.8844-11.572 4.4005-18.254 7.8047-6.6822 3.4041-13.495 7.6944-20.305 13.369-6.8097 5.6748-13.597 12.713-20.75 19.992-7.1534 7.279-14.682 14.81-20.701 20.578-3.0096 2.8842-5.6396 5.3251-7.8086 7.0293-2.169 1.7043-3.9137 2.6231-4.9024 2.6231-0.49434 0-0.78443-0.1519-1.002-0.5195-0.21752-0.3677-0.3355-1.0281-0.18164-2.0098 0.30772-1.9635 1.681-5.1291 4.7324-9.4883 6.1028-8.7183 18.907-22.287 31.582-35.213s25.224-25.223 34.119-33.115c8.8948-7.8926 14.126-11.377 18.607-13.742s8.2004-3.6036 12.582-4.8555 9.3635-2.4996 16.992-3.375c7.6287-0.8753 17.903-1.3779 52.547-1.6289 34.644-0.251 93.644-0.2505 134.06-0.125z" stop-color="#000000"/>
          <path d="m-325.61-1380.2-103.23 0.334-3.5918 4.6699 0.33789 8.9961-0.33789 11.189 3.123 3.3067h2.3789l16.834 0.166 82.488-0.834 0.1289-0.096s9.1521-6.7315 14.066-13.566c1.2286-1.7087 2.1969-3.4273 2.6836-5.084 0.48673-1.6567 0.48188-3.2844-0.30078-4.6816-0.78265-1.3972-2.3026-2.5057-4.666-3.2559-2.3634-0.7501-5.5905-1.1585-9.9141-1.1445zm2e-3 1c4.2585-0.014 7.3999 0.3957 9.6113 1.0977 2.2115 0.7019 3.4723 1.6801 4.0957 2.7929 0.62338 1.1129 0.65051 2.4187 0.21289 3.9082-0.43762 1.4896-1.3494 3.1313-2.5371 4.7832-4.6968 6.5323-13.527 13.099-13.73 13.25l-82.141 0.8301-16.828-0.166h-1.9531l-2.543-2.6914 0.32812-10.809-0.32812-8.668 3.0723-3.9941z" stop-color="#000000"/>
          <path d="m-199.08-1379-103.23 0.3339-3.5918 4.6719 0.33984 8.9942-0.33984 11.189 3.123 3.3066h2.3809l16.832 0.168 82.488-0.8359 0.13086-0.096s9.1501-6.7316 14.064-13.566c1.2286-1.7087 2.1969-3.4273 2.6836-5.084 0.48672-1.6567 0.48382-3.2825-0.29883-4.6797-0.78266-1.3972-2.3026-2.5077-4.666-3.2578-2.3634-0.7501-5.5924-1.1585-9.916-1.1445zm4e-3 1c4.2585-0.014 7.3979 0.3957 9.6094 1.0976 2.2115 0.7019 3.4723 1.6801 4.0957 2.793 0.62339 1.1128 0.65051 2.4206 0.21289 3.9101-0.43762 1.4896-1.3474 3.1294-2.5352 4.7813-4.6967 6.5323-13.527 13.099-13.73 13.25l-82.143 0.832-16.828-0.168h-1.9531l-2.543-2.6914 0.32812-10.809-0.32617-8.6679 3.0723-3.9942z" stop-color="#000000"/>
          <path d="m-68.977-1379-103.23 0.3339-3.5918 4.6719 0.33985 8.9942-0.33985 11.189 3.123 3.3066h2.3809l16.832 0.168 82.488-0.8359 0.13086-0.096s9.1501-6.7316 14.064-13.566c1.2286-1.7087 2.1969-3.4273 2.6836-5.084s0.48383-3.2825-0.29883-4.6797-2.3026-2.5077-4.666-3.2578c-2.3634-0.7501-5.5924-1.1585-9.916-1.1445zm0.0039 1c4.2585-0.014 7.3979 0.3957 9.6094 1.0976 2.2115 0.7019 3.4723 1.6801 4.0957 2.793 0.62338 1.1128 0.65051 2.4206 0.21289 3.9101-0.43762 1.4896-1.3494 3.1294-2.5371 4.7813-4.6967 6.5323-13.525 13.099-13.729 13.25l-82.143 0.832-16.828-0.168h-1.9531l-2.543-2.6914 0.32813-10.809-0.32618-8.6679 3.0723-3.9942z" stop-color="#000000"/>
          <path d="m-271.46-1523.6v47.551h94.104v-47.551zm1 1h92.104v45.551h-92.104z" stop-color="#000000"/>
          <path d="m-168.87-1523.7v47.68h119.3v-47.68zm1.127 1.127h117.04v45.426h-117.04z" stop-color="#000000"/>
          <path d="m-487.39-1492.9v59.488h63.07v-59.488zm1 1h61.07v57.488h-61.07z" stop-color="#000000"/>
          <path d="m-42.516-1525v175.75h118.45v-175.75zm1.4746 1.4746h115.5v172.8h-115.5z" stop-color="#000000"/>
          <path d="m-432.43-1333.2v43.971h42.777v-43.971zm1 1h40.777v41.971h-40.777z" stop-color="#000000"/>
          <path d="m-340.72-1332.7v43.971h42.777v-43.971zm1 1h40.777v41.971h-40.777z" stop-color="#000000"/>
          <path d="m-386.42-1333v43.971h42.777v-43.971zm1 1h40.777v41.971h-40.777z" stop-color="#000000"/>
          <path d="m-214.43-1333.3v43.971h148.18v-43.971zm1.8535 1.8516h144.48v40.266h-144.48z" stop-color="#000000"/>
          <path d="m-400.91-1525v47.553h94.104v-47.553zm1 1h92.104v45.553h-92.104z" stop-color="#000000"/>
     </g>
</svg>
